<svg width="20" height="20" fill="none" xmlns="http://www.w3.org/2000/svg"><g clip-path="url(#a)" fill-rule="evenodd" clip-rule="evenodd" fill="#595959"><path d="M10.795 4.375a.625.625 0 0 0-.625-.625H1.875A1.875 1.875 0 0 0 0 5.625v12.5A1.875 1.875 0 0 0 1.875 20h12.5a1.875 1.875 0 0 0 1.875-1.875V9.83a.625.625 0 1 0-1.25 0v8.295a.624.624 0 0 1-.625.625h-12.5a.625.625 0 0 1-.625-.625v-12.5A.625.625 0 0 1 1.875 5h8.295a.625.625 0 0 0 .625-.625Z"/><path d="M20 .625A.625.625 0 0 0 19.375 0h-6.25a.625.625 0 1 0 0 1.25h4.741L7.683 11.432a.626.626 0 1 0 .885.886L18.75 2.134v4.741a.625.625 0 1 0 1.25 0V.625Z"/></g><defs><clipPath id="a"><path fill="#fff" d="M0 0h20v20H0z"/></clipPath></defs></svg>