<svg width="32" height="32" fill="none" xmlns="http://www.w3.org/2000/svg"><rect width="32" height="32" rx="16" fill="#FB0"/><g clip-path="url(#a)"><path d="M20.877 4.102a.75.75 0 0 1 .34.87l-2.701 8.778H23.5a.75.75 0 0 1 .546 1.264l-12 12.75a.75.75 0 0 1-1.263-.735l2.702-8.779H8.5a.75.75 0 0 1-.546-1.265l12-12.75a.75.75 0 0 1 .923-.135v.002ZM10.236 16.75H14.5a.75.75 0 0 1 .717.97l-2.052 6.665 8.598-9.135H17.5a.75.75 0 0 1-.717-.97l2.052-6.665-8.6 9.135Z" fill="#221700"/></g><defs><clipPath id="a"><path fill="#fff" transform="translate(4 4)" d="M0 0h24v24H0z"/></clipPath></defs></svg>