<svg width="20" height="20" fill="none" xmlns="http://www.w3.org/2000/svg"><path d="M20 10a10 10 0 1 1-20 0 10 10 0 0 1 20 0Zm-9.641-2.617c-.973.404-2.918 1.242-5.833 2.512-.472.188-.721.373-.743.553-.038.303.343.423.862.587l.219.069c.51.166 1.197.36 1.554.367.324.008.686-.125 1.085-.4 2.723-1.838 4.13-2.767 4.217-2.787.063-.015.15-.033.207.02.06.051.053.15.047.176-.038.161-1.534 1.551-2.308 2.271-.241.225-.412.384-.447.42-.077.079-.156.157-.235.233-.475.457-.83.8.018 1.36.41.27.737.491 1.063.713.355.243.71.484 1.17.787.116.075.229.156.338.234.413.295.787.56 1.246.517.267-.025.543-.275.683-1.025.332-1.771.983-5.607 1.133-7.189.01-.131.004-.263-.016-.394a.421.421 0 0 0-.143-.27.658.658 0 0 0-.387-.117c-.375.006-.954.208-3.73 1.363Z" fill="#404040"/></svg>