<svg width="20" height="20" fill="none" xmlns="http://www.w3.org/2000/svg"><path fill="#404040" d="M0 0h20v20H0z"/><path d="M5.817 3.75c.577 0 1.11.044 1.598.175.487.088.889.27 1.245.489.357.22.621.532.801.934.175.4.27.888.27 1.42 0 .62-.132 1.153-.445 1.553-.268.4-.707.758-1.246 1.021.758.22 1.334.62 1.685 1.153s.576 1.196.576 1.954c0 .62-.131 1.152-.356 1.597-.224.448-.561.83-.978 1.109-.4.269-.888.488-1.42.62a6.66 6.66 0 0 1-1.598.22L0 16.004V3.75h5.817Zm-.356 4.973c.488 0 .888-.132 1.196-.357.308-.225.444-.621.444-1.108 0-.27-.043-.533-.131-.71a1.226 1.226 0 0 0-.4-.443 2.3 2.3 0 0 0-.576-.22c-.22-.044-.445-.044-.709-.044H2.712V8.73c0-.006 2.75-.006 2.75-.006Zm.131 5.24c.27 0 .533-.043.758-.087.22-.043.445-.132.62-.27a1.7 1.7 0 0 0 .445-.487c.088-.22.175-.489.175-.801 0-.62-.175-1.066-.532-1.378-.357-.269-.845-.4-1.422-.4H2.712v3.418h2.882v.006h-.002Zm8.573-.043c.358.356.889.533 1.598.533.487 0 .932-.133 1.29-.358.356-.269.575-.533.662-.8h2.175c-.358 1.064-.89 1.821-1.598 2.31-.707.444-1.553.707-2.575.707a5.17 5.17 0 0 1-1.908-.356 3.534 3.534 0 0 1-1.421-.977 3.564 3.564 0 0 1-.89-1.465c-.22-.576-.313-1.196-.313-1.91 0-.664.088-1.29.313-1.866a4.835 4.835 0 0 1 .933-1.51c.4-.4.889-.757 1.421-.977a5.023 5.023 0 0 1 1.867-.356c.757 0 1.421.131 1.997.444.575.312 1.021.665 1.378 1.197.356.488.62 1.064.801 1.685.088.62.131 1.245.088 1.954h-6.438c0 .725.262 1.387.62 1.745Zm2.8-4.665c-.313-.313-.802-.489-1.379-.489-.4 0-.707.088-.976.22-.269.131-.445.313-.62.488a1.196 1.196 0 0 0-.313.621c-.044.219-.087.4-.087.575h3.995c-.088-.658-.313-1.102-.621-1.415h.001Zm-3.909-4.66h4.973v1.196h-4.973V4.595Z" fill="#000"/></svg>