<svg width="77" height="24" fill="none" xmlns="http://www.w3.org/2000/svg"><path d="M76.096 23h-5.152l-.384-8.672c-.107-2.07-.16-3.915-.16-5.536 0-1.237.032-2.41.096-3.52l-3.424 15.392h-4.96L58.464 5.272c.128 1.856.192 3.605.192 5.248 0 1.237-.032 2.528-.096 3.872L58.176 23h-5.12L54.72.824h6.624l3.328 15.04L67.776.824h6.656L76.096 23Z" fill="#fff"/><path d="M40.876.102a.75.75 0 0 1 .34.87l-2.7 8.778H43.5a.75.75 0 0 1 .546 1.264l-12 12.75a.75.75 0 0 1-1.263-.735l2.701-8.779H28.5a.75.75 0 0 1-.546-1.264l12-12.75A.75.75 0 0 1 40.876.1v.001ZM30.236 12.75H34.5a.75.75 0 0 1 .717.97l-2.052 6.665 8.598-9.135H37.5a.75.75 0 0 1-.717-.97l2.052-6.665-8.6 9.135Z" fill="#FB0"/><path d="M10.68.28c2.859 0 5.323.907 7.392 2.72l-2.656 2.784c-.79-.597-1.525-1.024-2.208-1.28-.661-.277-1.43-.416-2.304-.416-1.643 0-2.955.65-3.936 1.952-.981 1.28-1.472 3.232-1.472 5.856 0 2.837.373 4.853 1.12 6.048.747 1.173 1.91 1.76 3.488 1.76 1.11 0 2.112-.245 3.008-.736v-5.024h-2.88l-.512-3.712h8.48v10.976a14.365 14.365 0 0 1-3.808 1.728 14.765 14.765 0 0 1-4.16.608c-3.37 0-5.91-.981-7.616-2.944-1.707-1.984-2.56-4.885-2.56-8.704 0-2.432.459-4.523 1.376-6.272.939-1.75 2.208-3.072 3.808-3.968C6.86.739 8.675.28 10.68.28Z" fill="#fff"/></svg>